<svg width="200" height="200" viewBox="0 0 200 200" fill="none" xmlns="http://www.w3.org/2000/svg">
<g id="mascot-restored">
<path id="Vector" d="M80.0526 29.4241C84.9113 14.0122 102.931 7.30824 115.148 18.6161C119.092 16.598 122.759 15.8722 127.092 17.2861C130.585 18.4067 133.494 20.8631 135.182 24.1184C138.877 31.3968 135.528 40.17 128.726 44.2276C127.302 45.0755 125.579 45.8747 124.093 46.6569C130.585 47.8882 139.262 44.7716 144.443 51.1357C145.1 51.947 146.286 55.1748 147.119 55.7055C157.892 55.7203 162.836 66.4137 158.289 75.519C167.114 84.0439 162.871 97.4117 150.802 99.0483C148.153 104.507 146.119 106.026 139.997 106.405C137.298 115.798 135.275 121.305 137.516 130.948C145.734 135.821 143.218 144.049 137.652 149.946C138.698 157.589 140.118 165.177 141.899 172.684C140.098 173.42 135.719 174.622 134.785 175.534C134.109 178.132 135.579 178.425 136.808 180.505C139.986 177.889 147.193 179.552 149.923 181.811L149.981 182.482C149.441 183.105 148.986 183.402 148.223 183.728C138.301 187.973 81.0269 188.601 71.4489 183.935C70.4431 183.445 70.1642 183.282 69.7792 182.248C71.3699 179.312 85.9124 177.425 88.7688 179.26C89.9613 178.354 90.8379 177.873 91.3385 176.445C90.8889 173.462 85.8008 174.337 83.8156 172.299C83.8207 171.443 83.8448 170.797 83.9035 169.943C79.0114 166.867 74.7226 164.274 70.5563 160.181C69.4194 159.065 67.5902 157.157 66.1052 157.17C57.764 157.239 54.101 147.698 58.1152 140.798C56.5894 135.567 56.1713 130.558 58.8597 125.56C60.7744 122.009 64.0524 119.389 67.9399 118.301C72.0968 117.101 75.4799 117.786 79.4595 119.183C80.9841 113.44 80.3918 110.799 78.216 105.131C76.6541 105.092 71.8565 104.928 70.8301 103.563C66.2877 97.5236 61.6476 102.417 56.4362 96.4081C49.452 88.3545 52.1555 77.2633 60.3773 71.3032C58.9293 63.5951 59.7982 59.1497 65.677 53.6516C63.8673 48.7648 63.5938 44.4487 65.8054 39.5576C67.7003 35.3527 71.2 32.0795 75.5246 30.4674C76.8213 29.9871 78.6723 29.604 80.0526 29.4241Z" fill="black"/>
<path id="Vector_2" d="M105 177.415C110.813 177.888 115.159 177.926 120.984 177.477C121.885 180.285 121.935 181.492 124.751 182.97C128.114 184.733 135.853 185.212 136.941 180.601C140.113 178.023 147.309 179.662 150.035 181.888L150.094 182.55C149.554 183.163 149.1 183.456 148.338 183.778C138.432 187.962 81.246 188.581 71.6828 183.981C70.6785 183.499 70.4001 183.338 70.0156 182.319C71.6039 179.425 86.1239 177.566 88.9759 179.374C88.8291 181.354 88.6295 180.717 89.405 182.233C92.8635 184.958 100.165 184.268 103.326 181.136C103.905 180.565 104.747 178.206 105 177.415Z" fill="#EBEBEB"/>
<path id="Vector_3" d="M128.013 56.427C127.652 54.6394 126.467 50.0474 126.809 48.5186C128.137 47.2819 129.376 47.2749 131.117 47.3761C138.416 47.8005 143.528 49.9136 146.057 57.014C150.893 56.9069 154.172 58.2026 156.813 62.3643C159.715 67.4168 159.319 70.6149 157.093 75.9304C160.084 78.8527 161.781 81.0662 161.813 85.375C161.813 85.8626 161.809 86.3502 161.797 86.8375C160.791 93.5526 156.957 97.2647 150.271 98.2648L149.887 98.7016C147.91 98.8362 145.233 99.0578 143.71 97.7035C144.219 96.613 145.035 95.3286 145.66 94.2714C143.885 93.2702 124.692 96.4272 123.802 84.6034C123.635 84.447 123.468 84.2911 123.301 84.1347C117.082 86.4053 113.057 90.0313 105.898 88.4994L105.537 88.4195C100.207 88.0785 96.0506 86.1054 91.4804 83.5699C87.834 97.2384 72.5023 92.7608 71.0507 95.2576C71.5953 96.0152 72.0626 96.0974 72.9308 96.4489C72.3423 98.8642 70.583 99.9531 68.1271 99.623C67.6831 99.2719 65.1108 99.4213 64.1047 99.2009C54.8734 97.1782 52.296 90.0678 54.1936 81.3374C56.2839 76.4397 57.0907 74.985 61.4336 72.0852C59.752 64.7924 60.6998 60.4309 65.8958 55.0545C67.7834 57.4919 68.5342 58.054 71.0312 59.8366C72.2801 60.2753 73.5916 60.7668 74.9096 60.9422C77.1483 61.2405 80.3348 59.8777 82.0382 61.3126L82.6531 63.2058C83.4052 66.611 85.8602 70.5241 83.0217 72.8478L83.0225 73.4363C84.3619 73.5915 83.8274 73.671 85.1657 72.7291C92.9872 66.6789 97.4918 64.8762 106.78 61.7929C112.645 60.2943 116.472 59.4696 122.489 58.653C125.243 58.3686 132.527 59.0537 133.311 58.2449C131.591 56.9449 130.142 56.844 128.013 56.427Z" fill="#2E7701"/>
<path id="Vector_4" d="M128.233 56.4647C127.871 54.6697 126.682 50.0587 127.025 48.5235C128.358 47.2816 129.601 47.2746 131.347 47.3763C138.669 47.8025 143.798 49.9243 146.334 57.054C151.186 56.9465 154.475 58.2476 157.125 62.4266C156.498 68.2997 156.661 68.2681 153.372 73.2597L156.236 77.5088C155.839 82.0337 155.773 82.6211 153.403 86.4262C148.197 88.5277 144.674 89.8269 138.934 87.5258C135.057 85.97 131.542 83.0041 130.053 78.9984C129.375 77.1641 130.186 72.4125 129.769 71.1055C129.176 72.7689 128.046 74.1482 127.021 75.5627C125.696 76.1641 124.414 76.667 123.074 77.2229C113.632 81.1417 102.112 85.7511 94.6797 75.3515C91.4839 74.9145 87.6844 74.8233 85.25 72.8343C93.0964 66.7591 97.6153 64.9489 106.933 61.8528C112.817 60.348 116.656 59.5198 122.692 58.6999C125.455 58.4143 132.762 59.1023 133.549 58.2901C131.822 56.9847 130.369 56.8834 128.233 56.4647Z" fill="#498C03"/>
<path id="Vector_5" d="M107.125 61.6535C112.949 60.2272 116.748 59.4423 122.722 58.6651C123.104 60.0146 123.436 60.9801 123.922 62.2837L123.525 62.5714C117.863 61.7214 114.241 60.7999 108.675 62.5588L107.125 61.6535Z" fill="#2E7701"/>
<path id="Vector_6" d="M144.174 68.4533C145.966 68.3759 147.584 68.4507 149.174 69.4347C150.647 70.3473 152.07 72.2755 152.371 73.9932C152.535 74.9446 152.417 76.2605 151.785 77.0318C151.389 77.5167 151.26 77.3775 150.681 77.4151C148.741 72.5016 146.157 71.6491 141.891 69.3093C142.576 68.571 143.207 68.6362 144.174 68.4533Z" fill="#2A6F02"/>
<path id="Vector_7" d="M61.591 72.2052C59.9186 64.9017 60.8612 60.5337 66.0287 55.1495C67.9059 57.5904 68.6526 58.1534 71.1359 59.9386C72.378 60.378 73.6822 60.8702 74.993 61.0458C77.2194 61.3445 80.3884 59.9797 82.0825 61.4168L82.694 63.3127C83.442 66.723 85.8835 70.6418 83.0607 72.969L83.0614 73.5583L82.2158 74.4356L82.2583 74.8948C83.7537 74.9814 84.7219 77.1333 84.4105 78.4228C82.7833 85.1645 79.3202 86.7985 73.4859 88.2667C64.2423 90.593 59.1251 90.4054 54.3906 81.471C56.4694 76.5661 57.2718 75.1092 61.591 72.2052Z" fill="#498C03"/>
<path id="Vector_8" d="M71.1875 59.837C72.4468 60.2629 73.7692 60.7401 75.0982 60.9103C77.3555 61.1999 80.5686 59.8769 82.2862 61.2699L82.9062 63.1077C82.3434 63.5084 80.8628 64.3023 80.6705 64.5245C79.8291 62.6513 76.0606 63.0693 74.155 63.0399C72.5976 61.9937 71.8941 61.5158 71.1875 59.837Z" fill="#307A01"/>
<path id="Vector_9" d="M82.7715 63.3526C83.5207 66.6636 85.9665 70.4682 83.1387 72.7276C82.3013 69.4766 81.8586 67.8819 80.5625 64.7716C80.7525 64.549 82.2154 63.7539 82.7715 63.3526Z" fill="#2A6F02"/>
<path id="Vector_10" d="M67.8033 59.837C68.3577 59.9379 68.682 60.1734 69.1504 60.4858C69.3934 61.6345 69.0638 62.2714 68.7352 63.3526C68.1394 63.2086 67.8421 63.0388 67.3652 62.6334C67.1135 61.5375 67.4774 60.8729 67.8033 59.837Z" fill="#69A50F"/>
<path id="Vector_11" d="M64.8747 63.7432L65.6768 64.0795C66.3522 65.168 66.0793 65.6709 65.9019 66.8682L64.8293 66.513C64.3016 65.4449 64.6304 64.855 64.8747 63.7432Z" fill="#5F9C04"/>
<path id="Vector_12" d="M105.562 88.3538C107.563 87.3878 113.101 87.7869 115.723 86.8185C118.702 85.7182 121.793 83.0195 124.784 82.5109C126.528 82.2135 126.904 85.7387 129.74 87.764C135.969 92.2123 144.475 92.9041 151.843 92.2312C156.294 91.825 158.612 89.7323 161.102 86.3229L161.812 86.7472C160.807 93.5667 156.973 97.3366 150.289 98.3522L149.905 98.7958C147.928 98.9325 145.252 99.1575 143.729 97.7821C144.238 96.6747 145.054 95.3703 145.679 94.2967C143.904 93.2799 124.714 96.486 123.824 84.4784C123.657 84.3196 123.49 84.1612 123.323 84.0025C117.105 86.3083 113.082 89.9907 105.924 88.4349L105.562 88.3538Z" fill="#2A6F02"/>
<path id="Vector_13" d="M93.1691 86.3995C102.984 91.6525 112.306 92.2014 122.13 86.6874C126.452 95.0081 134.01 96.5171 142.672 95.8704C140.496 99.7074 139.571 102.44 138.378 106.581C137.476 109.378 137.099 111.165 136.54 114L135.343 119.326C135.047 121.55 134.729 123.667 134.651 125.915C122.138 129.537 124.303 138.49 120.735 140.167C119.733 140.21 117.626 140.817 116.565 141.087L116.694 140.46C117.817 134.831 117.556 129.528 114.238 124.623C111.754 120.962 107.903 118.468 103.559 117.709C98.0406 116.749 94.1872 118.212 89.7797 121.292C88.5598 122.365 87.2588 123.923 86.1548 125.172C84.6365 123.172 83.7314 122.12 81.673 120.73C80.1737 119.21 81.6085 116.924 81.6085 114.15C81.6081 108.187 79.0736 103.302 76.6064 98.1073C76.3596 97.8495 76.0635 97.2337 75.875 96.8894C76.4595 96.1342 82.3705 95.2745 85.2598 93.9511L88.2746 92.1327C90.5522 90.1939 91.5948 88.9861 93.1691 86.3995Z" fill="#92BF03"/>
<path id="Vector_14" d="M93.2604 86.3995C103.057 91.6866 112.362 92.2392 122.168 86.6893C126.481 95.064 134.026 96.5829 142.672 95.932C140.5 99.7939 139.577 102.544 138.386 106.712C136.962 105.959 135.255 104.893 133.735 104.694C134.243 102.97 134.712 100.306 135.089 98.4836C128.692 96.8955 125.737 95.7979 121.485 90.2854C110.396 93.9106 104.938 94.3974 94.0991 89.6573L90.7562 92.7807L88.375 92.17C90.6484 90.2185 91.6891 89.0029 93.2604 86.3995Z" fill="#69A50F"/>
<path id="Vector_15" d="M131.255 118.04C132.609 118.535 133.839 119.013 135.25 119.336C134.958 121.532 134.642 123.622 134.566 125.842C122.185 129.418 124.327 138.259 120.797 139.915C120.831 138.614 121.47 137.503 121.735 136.303C123.008 130.552 126.783 128.223 130.798 124.485L131.255 118.04Z" fill="#5F9C04"/>
<path id="Vector_16" d="M133.671 104.759C135.209 104.955 136.935 106.009 138.375 106.753C137.465 109.536 137.084 111.313 136.519 114.134C134.561 113.918 133.161 114.113 132.125 112.374L133.671 104.759Z" fill="#498C03"/>
<path id="Vector_17" d="M132.265 112.181C133.337 113.913 134.787 113.719 136.812 113.934L135.562 119.212C134.072 118.888 132.773 118.408 131.344 117.912C131.595 116.054 131.965 114.047 132.265 112.181Z" fill="#69A50F"/>
<path id="Vector_18" d="M85.498 94.212C85.4793 95.0045 85.4123 95.5333 85.6406 96.3063C81.803 97.8314 79.458 97.2196 76.6249 98.1182C76.3719 97.8759 76.0683 97.2971 75.875 96.9736C76.4743 96.2637 82.5354 95.4558 85.498 94.212Z" fill="#5F9C04"/>
<path id="Vector_19" d="M81.7344 120.813C83.1826 120.988 84.8802 121.319 86.262 121.042L88.5077 120.774L89.9375 121.352C88.7032 122.38 87.3866 123.873 86.2695 125.071C84.7331 123.154 83.8173 122.145 81.7344 120.813Z" fill="#83B502"/>
<path id="Vector_20" d="M86.2975 120.774C85.0576 120.536 84.9781 120.557 84.0892 119.705C83.8821 117.402 86.6242 116.677 88.4686 117.735C88.8633 118.667 88.8887 119.585 88.3986 120.505L86.2975 120.774Z" fill="#DE794C"/>
<path id="Vector_21" d="M85.2733 94.0142L88.3132 92.2589L90.7188 92.8446C88.9398 93.9357 87.1714 95.0427 85.4136 96.1651C85.189 95.3712 85.2549 94.8281 85.2733 94.0142Z" fill="#83B502"/>
<path id="Vector_22" d="M115.827 103.978C116.731 104.097 117.731 104.267 118.565 104.646C120.149 105.365 121.374 106.948 121.935 108.561C122.654 110.673 122.453 112.989 121.382 114.948C120.212 117.086 118.644 117.749 116.451 118.431C116.372 118.419 116.297 118.409 116.218 118.396C116.091 118.374 115.961 118.348 115.834 118.325C115.025 118.182 114.207 118.058 113.472 117.669C111.812 116.791 110.659 115.21 110.141 113.428C109.56 111.435 109.9 109.223 110.955 107.447C112.136 105.458 113.654 104.571 115.827 103.978Z" fill="black"/>
<path id="Vector_23" d="M91.5074 103.978C91.9996 104.003 92.4941 104.04 92.9771 104.141C94.8168 104.528 96.3174 105.622 97.2424 107.2C98.2676 108.949 98.3837 111.129 97.751 113.026C96.9461 115.458 95.4403 116.591 93.1585 117.649C92.1425 117.611 90.9311 117.573 89.9864 117.194C88.3958 116.558 87.0999 115.044 86.5088 113.512C85.7904 111.629 85.8857 109.546 86.7732 107.731C87.8268 105.594 89.3285 104.755 91.5074 103.978Z" fill="black"/>
<path id="Vector_24" d="M115.655 94.9932C117.899 95.3121 120.072 95.7665 121.656 97.5818C122.321 98.3459 122.414 98.7039 122.336 99.6873L121.703 100.071L120.768 99.6993C118.438 98.4841 114.74 99.034 112.984 97.3748L113.055 96.6372C113.833 95.8224 114.646 95.4584 115.655 94.9932Z" fill="#2A6F02"/>
<path id="Vector_25" d="M120.283 118.584C121.715 118.447 123.379 118.219 124.7 118.868C125.56 119.29 125.571 119.424 125.875 120.292C125.627 121.383 125.007 121.84 124.16 122.58C122.957 122.715 121.577 122.882 120.417 122.449C119.392 122.065 119.203 121.752 118.844 120.811C119.069 119.742 119.467 119.337 120.283 118.584Z" fill="#DE794C"/>
<path id="Vector_26" d="M91.0187 95.385C92.6488 95.3682 94.2492 95.5309 95.5555 96.5902C95.8873 97.5456 95.8673 97.5839 95.5555 98.5503L94.8028 98.9147C93.5273 98.7146 92.3506 98.6103 91.0603 98.6298L90.679 98.638C89.4558 99.4141 88.439 100.313 86.9796 100.012L86.8125 99.2286C87.7526 97.1295 89.1005 96.3909 91.0187 95.385Z" fill="#2E7701"/>
<path id="Vector_27" d="M85.7434 129.111C91.0429 121.254 97.3883 116.69 106.977 120.687C114.648 124.005 117.037 133.052 115.055 140.719C114.873 141.415 114.141 142.067 113.591 142.489L113.006 142.562C112.433 141.92 111.229 140.65 110.772 140.01C109.517 139.361 108.727 138.798 107.302 138.928C106.094 139.855 105.792 142.19 104.909 142.128C96.4047 141.524 99.6034 145.835 96.9004 149.155C99.4524 154.358 97.8143 155.017 103.588 157.628L103.515 158.234C97.9731 163.119 93.3586 165.815 87.0922 169.603C79.2759 165.29 75.7465 162.84 69.3012 156.64C73.2697 152.858 71.3323 153.269 72.0111 148.856C72.1598 146.565 70.4478 144.766 69.3755 142.286C67.9365 138.958 64.8567 142.085 63.034 141.268C62.6425 141.26 61.7049 139.333 61.4246 139.302C58.1012 138.947 58.3533 133.1 59.333 129.644C60.3395 126.019 62.7811 122.968 66.0886 121.203C69.4576 119.408 73.401 119.04 77.0411 120.181C80.6832 121.467 83.1794 122.942 85.0045 126.495C85.4045 127.275 85.3693 128.266 85.7434 129.111Z" fill="#F13923"/>
<path id="Vector_28" d="M96.9044 149.197C99.4629 154.389 97.8207 155.047 103.609 157.653L103.536 158.258C97.9799 163.133 93.3536 165.823 87.071 169.603C79.2347 165.299 75.6963 162.854 69.2344 156.667C73.2131 152.893 71.2707 153.303 71.9513 148.899C73.5873 151.97 72.1734 154.414 72.7029 155.278C74.8542 158.79 82.8368 162.764 86.5034 164.487C89.9455 162.711 93.2118 160.614 96.2599 158.223C96.5705 157.982 96.4308 158.068 96.7841 157.917C98.2904 155.735 96.4657 153.057 96.9044 149.197Z" fill="#CE200A"/>
<path id="Vector_29" d="M96.7021 149.29C99.3378 154.439 97.646 155.091 103.609 157.675L103.533 158.274C102.194 157.879 101.03 157.624 99.9498 156.75C99.4698 156.356 98.9939 155.952 98.5299 155.538C98.2259 156.796 98.2579 157.32 97.2821 158.075L96.5781 157.937C98.13 155.773 96.2502 153.117 96.7021 149.29Z" fill="#C3160C"/>
<path id="Vector_30" d="M107.125 120.774C114.666 124.092 117.015 133.139 115.066 140.806C114.887 141.503 114.167 142.155 113.627 142.577L113.052 142.649C112.489 142.007 111.305 140.737 110.856 140.098C115.363 132.135 112.112 127.283 107.125 120.774Z" fill="#CE200A"/>
<path id="Vector_31" d="M77.0469 120.384C80.6435 121.672 83.1086 123.15 84.911 126.709C85.306 127.49 85.2712 128.483 85.6406 129.329C85.228 129.606 84.8131 129.879 84.3962 130.149C83.4062 129.577 82.8356 126.833 81.7981 125.576C80.273 123.729 78.419 122.298 77.0469 120.384Z" fill="#CE200A"/>
<path id="Vector_32" d="M70.1997 122.831C70.4746 122.798 70.7496 122.766 71.0258 122.746C72.4212 122.648 73.9993 122.926 75.0938 123.823C74.4436 126.103 69.9767 126.54 68.149 127.868C66.5131 129.057 65.6299 130.766 64.7688 132.517C64.6418 133.129 64.4799 133.364 64.1602 133.892L63.3531 134.056C62.5064 133.505 62.2521 133.184 62.0027 132.184C61.5611 130.413 61.9029 128.396 62.8777 126.858C63.8262 125.362 65.7782 123.617 67.5676 123.293L70.1997 122.831Z" fill="#F97470"/>
<path id="Vector_33" d="M96.289 122.031C97.3891 121.961 98.3603 121.761 99.3125 122.413C98.99 123.977 93.9647 125.46 92.4415 126.626L92.1179 126.879C91.4939 127.306 91.415 127.415 90.668 127.415L90.3281 126.813C90.4055 126.498 90.4245 126.351 90.5459 126.07C91.5144 123.829 94.1426 122.768 96.289 122.031Z" fill="#F97470"/>
<path id="Vector_34" d="M81.5448 31.1135C82.6367 26.6849 83.927 23.8132 87.339 20.5872C91.4487 16.7453 96.9147 14.7097 102.526 14.9315C107.834 15.1642 111.101 17.1518 114.555 20.9567C115.385 20.5022 116.223 20.0715 117.077 19.6645C124.566 16.1738 130.954 19.7709 134.12 26.9512C134.741 31.2995 134.795 35.0358 132.036 38.7452C130.077 41.3912 127.139 43.1317 123.883 43.5737C122.211 43.7978 115.44 43.8318 115.327 40.5667C115.312 40.1224 116.414 37.8284 116.681 37.2456L117.019 35.7924L115.541 35.3819C113.775 37.6985 112.153 41.162 110.131 43.0444C105.195 47.6456 97.8731 49.7915 91.4642 47.1108C89.8993 46.4559 87.1232 44.222 86.2412 45.7231L86.6786 46.8142L89.4631 48.8252C85.0604 60.8297 69.9793 63.303 66.6378 50.6612C66.4784 49.9092 66.346 49.1518 66.2413 48.3902C65.0112 38.8157 72.562 32.1013 81.5448 31.1135Z" fill="#FEFEFE"/>
<path id="Vector_35" d="M86.3537 45.6141C85.2235 44.7699 84.6305 43.1013 84.9417 41.7391C87.4426 40.3857 90.9189 45.0443 97.1831 44.1852C106.616 42.8913 110.199 38.1184 115.887 31.3214L116.679 31.4281C117.609 32.7685 117.254 34.3715 116.98 35.9044L115.509 35.5031C113.752 37.7681 112.138 41.1545 110.126 42.9949C105.215 47.4938 97.9283 49.5919 91.551 46.9709C89.9938 46.3306 87.2314 44.1463 86.3537 45.6141Z" fill="#D5D4D5"/>
<path id="Vector_36" d="M86.7829 46.9464L89.5469 48.9356C85.1768 60.8105 70.2073 63.2571 66.8906 50.7518C68.1736 51.8141 69.4654 52.895 70.9738 53.6203C73.7816 54.9718 77.0132 55.1395 79.9458 54.0865C83.3646 52.8221 85.3424 50.1557 86.7829 46.9464Z" fill="#D5D4D5"/>
<path id="Vector_37" d="M134.12 27.0245C134.741 31.3954 134.795 35.1512 132.036 38.8799C130.077 41.5397 127.14 43.2893 123.884 43.7336C122.212 43.9589 115.441 43.993 115.328 40.711C115.313 40.2643 116.415 37.9583 116.683 37.3725C124.07 44.0212 134.791 33.5501 134.12 27.0245Z" fill="#D5D4D5"/>
<path id="Vector_38" d="M121.269 159.88C121.708 155.841 127.401 157.14 130.376 155.515C132.201 154.518 133.984 153.445 135.794 152.415C136.605 153.178 136.501 153.854 136.757 155.12C137.782 160.561 138.842 165.995 139.938 171.422C124.52 176.617 105.02 177.598 89.5469 172.459C90.2898 171.711 92.2429 170.655 93.2343 170.07L92.2293 169.692L93.3602 168.088C94.0247 167.167 100.647 162.738 101.875 162.613L102.845 163.597C108.791 168.396 117.786 167.019 121.269 159.88Z" fill="#FEFEFE"/>
<path id="Vector_39" d="M121.188 159.837C121.63 155.821 127.374 157.113 130.375 155.497C132.217 154.506 134.015 153.439 135.841 152.415C136.66 153.174 136.554 153.846 136.812 155.105C134.748 155.537 134.07 156.292 132.201 157.151C128.118 159.024 125.646 159.475 121.188 159.837Z" fill="#D5D4D5"/>
<path id="Vector_40" d="M93.4048 168.02C94.0649 167.104 100.644 162.696 101.864 162.571L102.828 163.551C99.5795 166.669 97.1835 167.927 93.2798 169.993L92.2812 169.617L93.4048 168.02Z" fill="#D5D4D5"/>
<path id="Vector_41" d="M112.926 145.604C116.916 145.468 120.809 144.729 124.364 142.859C124.822 142.658 127.442 140.986 127.566 140.638C130.229 133.077 137.363 125.443 141.5 138.012C141.201 150.195 128.866 156.145 118.127 155.794C115.751 155.711 113.391 155.339 111.105 154.688C107.954 156.148 103.199 156.769 100.564 154.008C100.082 152.63 100.079 153.229 100.68 151.753C99.8262 150.904 99.1858 150.462 98.9219 149.304C99.1004 149.193 99.2751 149.077 99.4498 148.958C102.334 146.97 99.5157 147.185 99.9854 144.646C101.767 143.314 104.658 144.019 106.848 144.321C107.593 143.728 107.488 142.379 107.973 140.902L108.621 140.687C110.803 142.014 111.482 143.476 112.926 145.604Z" fill="#92BF03"/>
<path id="Vector_42" d="M141.5 137.962C141.2 150.179 128.829 156.146 118.058 155.794C115.676 155.71 113.309 155.338 111.016 154.684C107.855 156.148 103.087 156.771 100.444 154.003C99.961 152.621 99.9571 153.221 100.561 151.741C103.457 155.449 106.859 152.998 109.977 153.227C124.898 154.32 134.532 151.911 141.5 137.962Z" fill="#69A201"/>
<path id="Vector_43" d="M113.606 42.6495C117.622 45.588 118.998 46.0059 123.986 45.9425L126.266 56.4074L121.343 56.7151C109.78 57.9801 95.8446 62.1987 86.4489 69.212C85.8125 66.8448 84.8178 62.7156 83.7596 60.6295C83.7115 60.4068 83.5941 59.5106 83.8294 59.3378C87.7432 56.4638 89.9004 54.0955 91.6416 49.6616C100.178 51.6982 107.625 48.7775 113.606 42.6495Z" fill="#FEFEFE"/>
<path id="Vector_44" d="M113.606 42.6495C117.622 45.5862 118.998 46.0038 123.986 45.9405L126.266 56.3988L121.343 56.7063C121.087 53.6758 120.668 51.2792 119.804 48.344C117.06 47.625 115.784 47.0578 113.404 45.4363C106.939 50.1827 100.624 52.6225 92.589 51.7277C90.4039 56.0279 88.6708 58.9306 83.7596 60.6182C83.7115 60.3957 83.5941 59.5001 83.8294 59.3274C87.7432 56.4552 89.9004 54.0884 91.6416 49.6572C100.178 51.6926 107.625 48.7736 113.606 42.6495Z" fill="#D5D4D5"/>
<path id="Vector_45" d="M59.6121 152.033C59.4041 151.653 59.2053 151.267 59.0165 150.876C57.7711 148.282 56.9208 142.877 60.1737 141.478L60.5767 141.736L60.8207 143.674C61.9557 144.832 63.4178 141.678 66.5398 142.123C67.6759 142.816 67.4794 142.468 67.9184 143.512C67.5258 144.769 66.5558 145.293 65.4748 146.133L65.4821 146.478C66.611 146.341 67.5093 146.273 68.645 146.222C69.8383 146.866 69.4613 146.459 70.0156 147.803C69.7774 149.175 69.6211 148.924 68.3244 149.976L68.4125 150.861L69.636 151.069C71.1273 154.427 64.0514 158.689 59.6121 152.033Z" fill="#92BF03"/>
<path id="Vector_46" d="M68.5447 150.853L69.8065 151.061C71.3444 154.425 64.047 158.694 59.4688 152.027C61.9181 153.208 66.5181 154.034 68.6008 151.856L68.5447 150.853Z" fill="#498C03"/>
<path id="Vector_47" d="M110.907 156.321C113.112 156.937 117.936 156.778 119.529 158.014C119.658 158.91 119.728 159.141 119.261 159.92C117.831 162.311 115.279 163.666 112.773 164.424C110.475 164.581 106.68 164.748 104.712 163.296C103.789 162.612 103.769 162.076 103.609 161.003C104.007 159.461 105.285 158.588 106.407 157.579C108.028 157.376 109.387 156.901 110.907 156.321Z" fill="#D5D4D5"/>
<path id="Vector_48" d="M111.49 158.665C112.71 158.798 115.002 158.693 115.976 159.432C116.516 159.841 116.398 159.999 116.5 160.616C115.288 162.309 113.16 162.778 111.243 163.353L111.012 163.33C108.67 163.12 106.612 162.51 104.391 161.801C106.632 160.491 108.959 159.31 111.49 158.665Z" fill="#FEFEFE"/>
<path id="Vector_49" d="M122.75 177.382C125.688 177.256 130.985 175.73 132.691 176.423L132.748 177.476C133.055 178.113 133.419 178.918 133.783 179.504C134.909 180.438 134.742 180.012 134.859 181.148C134.382 181.66 134.287 181.816 133.711 182.235C128.475 182.681 123.849 183.242 122.75 177.382Z" fill="#498C03"/>
<path id="Vector_50" d="M125.875 180.027C128.194 178.725 130.083 177.754 132.717 177.415C133.029 178.094 133.398 178.954 133.767 179.579C134.909 180.576 134.74 180.121 134.859 181.333C134.375 181.88 134.279 182.046 133.694 182.493L131.336 181.753C129.679 181.328 127.544 180.569 125.875 180.027Z" fill="#8BB903"/>
<path id="Vector_51" d="M133.769 179.368C134.909 180.437 134.74 179.95 134.859 181.25C134.376 181.835 134.28 182.014 133.696 182.493L131.344 181.699C132.58 181.09 132.89 180.503 133.769 179.368Z" fill="#69A50F"/>
<path id="Vector_52" d="M92.7772 177.617L93.0861 176.141C94.8036 175.177 100.288 176.924 102.828 177.09C102.333 178.48 101.868 180.042 101.095 181.264C98.7755 181.044 92.2455 183.677 90.3281 180.592L90.5269 179.748C91.6045 179.028 92.1229 178.791 92.7772 177.617Z" fill="#83B502"/>
<path id="Vector_53" d="M92.6719 177.635L92.984 176.144C94.7195 175.17 100.261 176.935 102.828 177.103C102.328 178.508 101.858 180.087 101.077 181.321C98.8831 179.434 95.4807 178.152 92.6719 177.635Z" fill="#498C03"/>
<path id="Vector_54" d="M150.094 98.746C148.839 101.105 144.437 107.067 141.552 104.535C141.176 102.416 142.945 99.7351 143.992 97.7276C145.496 99.1094 148.14 98.8834 150.094 98.746Z" fill="#205E01"/>
<path id="Vector_55" d="M73.2637 96.5557C74.7976 98.5426 76.6228 100.62 77.0469 103.103L76.7874 104.069C73.9767 105.4 69.9057 101.987 68.4531 99.7074C70.9125 100.035 72.6743 98.954 73.2637 96.5557Z" fill="#205E01"/>
<path id="Vector_56" d="M133.645 127.806C134.648 127.923 134.613 127.994 135.25 128.72L135.154 129.452C131.055 130.965 128.562 132.477 126.991 136.845C126.517 138.16 126.239 139.361 125.463 140.553L124.483 140.696L124.027 140.324C123.676 138.948 124.267 137.528 124.838 136.279C126.683 132.252 129.562 129.338 133.645 127.806Z" fill="#FEFEFE"/>
<path id="Vector_57" d="M87.2031 171.324C88.4136 170.911 91.7838 168.798 93.0625 168.04L91.9526 169.761L92.939 170.166C91.9659 170.794 90.0491 171.925 89.32 172.728L87.2679 172.266L87.2031 171.324Z" fill="#D5D4D5"/>
<path id="Vector_58" d="M121.867 141.868L121.969 142.24C120.086 143.076 117.836 143.393 115.794 143.821L115.496 143.685L115.328 143.218C116.986 142.215 119.882 142.143 121.867 141.868Z" fill="#D5D4D5"/>
<path id="Vector_59" d="M87.2031 172.337L86.0788 171.677L86.0312 171.165L87.15 171.248L87.2031 172.337Z" fill="#535B5D"/>
<path id="Vector_60" d="M48.4174 102.475C49.4544 102.414 50.5248 102.319 51.524 102.661C52.6714 103.054 53.6663 103.852 54.1831 104.953C56.2313 109.315 52.4722 116.073 51.1088 120.384C48.8011 119.822 46.5653 119.116 44.3105 118.38C43.4965 118.001 42.6743 117.615 41.9156 117.136C39.7495 115.767 37.7842 113.749 37.3196 111.155C37.0309 109.542 37.2492 107.475 38.3114 106.174C40.4635 103.536 42.8992 106.161 45.2793 105.857C46.2206 104.415 46.9587 103.436 48.4174 102.475Z" fill="#F13923"/>
<path id="Vector_61" d="M150.612 113.353C151.899 113.219 152.749 113.647 153.719 114.503C154.69 115.362 154.57 116.502 155.245 117.452C155.679 117.705 155.966 117.738 156.45 117.773C158.413 117.914 160.197 117.946 161.586 119.547C161.839 120.223 161.904 120.706 161.658 121.403C160.757 123.957 159.089 125.313 156.779 126.507C154.233 127.337 151.444 127.704 148.809 128.196C147.904 124.906 146.308 120.729 147.263 117.319C147.854 115.216 148.595 113.562 150.612 113.353Z" fill="#F13923"/>
<path id="Vector_62" d="M45.2073 130.816C45.8871 130.383 46.7921 130.026 48.2054 130.226C49.5413 130.849 50.0171 131.264 50.481 132.403C51.3635 134.57 49.8378 137.367 48.9372 140.306C45.911 140.09 40.4263 139.062 39.9402 136.429C39.7309 135.294 40.1028 134.462 40.9116 133.639C41.9605 132.573 43.1391 132.913 44.6614 132.857C44.6614 132.857 44.5275 131.25 45.2073 130.816Z" fill="#F13923"/>
<path id="Vector_63" d="M45.3125 130.859C46.6804 130.266 46.6607 130.028 48.1262 130.225C49.5115 130.839 49.6408 131.135 50.486 132.372C49.1639 133.587 48.4568 133.841 46.7303 133.562C45.3126 132.361 46.0062 132.707 45.3125 130.859Z" fill="#EC574A"/>
</g>
</svg>
