<svg width="24" height="24" viewBox="0 0 22.125 20.8059" fill="none" xmlns="http://www.w3.org/2000/svg">
<g id="chef&#39;s hat">
<g id="Group">
<path id="Vector" d="M6.07503 7.98092C5.74232 7.25016 5.56361 6.45873 5.55002 5.65591C5.7079 4.30468 6.35654 3.05851 7.37279 2.15409C8.38904 1.24966 9.70208 0.75 11.0625 0.75C12.4229 0.75 13.736 1.24966 14.7522 2.15409C15.7685 3.05851 16.4171 4.30468 16.575 5.65591C16.5533 6.45773 16.375 7.24757 16.05 7.98092" stroke="currentColor" stroke-width="1.5" stroke-linecap="round" stroke-linejoin="round"/>
<g id="Group_2">
<path id="Vector_2" d="M5.25001 14.3559C3.98545 14.1271 2.84168 13.4607 2.01898 12.4734C1.19628 11.4862 0.747077 10.241 0.750014 8.95592C0.750014 5.95592 2.77502 4.08092 5.77502 4.08092" stroke="currentColor" stroke-width="1.5" stroke-linecap="round" stroke-linejoin="round"/>
<path id="Vector_3" d="M16.275 4.08092C19.35 4.08092 21.375 5.95592 21.375 8.95592C21.3779 10.241 20.9287 11.4862 20.106 12.4734C19.2833 13.4607 18.1396 14.1271 16.875 14.3559" stroke="currentColor" stroke-width="1.5" stroke-linecap="round" stroke-linejoin="round"/>
</g>
</g>
<path id="Vector_4" d="M5.25 14.3559V20.0559H16.8V14.3559" stroke="currentColor" stroke-width="1.5" stroke-linecap="round" stroke-linejoin="round"/>
<path id="Vector_5" d="M5.25 17.2059H16.8" stroke="currentColor" stroke-width="1.5" stroke-linecap="round" stroke-linejoin="round"/>
<path id="Vector_6" d="M11.025 17.2059V14.2059" stroke="currentColor" stroke-width="1.5" stroke-linecap="round" stroke-linejoin="round"/>
</g>
</svg>
